<svg width="65" height="18" viewBox="0 0 65 18" fill="none" xmlns="http://www.w3.org/2000/svg">
<path d="M4.59204 0.151978V17H0.488037V0.151978H4.59204Z" fill="#0F241D"/>
<path d="M6.75016 10.304C6.75016 8.91198 7.03016 7.69598 7.59016 6.65598C8.16616 5.61598 8.95816 4.81598 9.96616 4.25598C10.9902 3.69598 12.1582 3.41598 13.4702 3.41598C15.1502 3.41598 16.5502 3.85598 17.6702 4.73598C18.8062 5.61598 19.5502 6.85598 19.9022 8.45598H15.5342C15.1662 7.43198 14.4542 6.91998 13.3982 6.91998C12.6462 6.91998 12.0462 7.21598 11.5982 7.80798C11.1502 8.38398 10.9262 9.21598 10.9262 10.304C10.9262 11.392 11.1502 12.232 11.5982 12.824C12.0462 13.4 12.6462 13.688 13.3982 13.688C14.4542 13.688 15.1662 13.176 15.5342 12.152H19.9022C19.5502 13.72 18.8062 14.952 17.6702 15.848C16.5342 16.744 15.1342 17.192 13.4702 17.192C12.1582 17.192 10.9902 16.912 9.96616 16.352C8.95816 15.792 8.16616 14.992 7.59016 13.952C7.03016 12.912 6.75016 11.696 6.75016 10.304Z" fill="#0F241D"/>
<path d="M28.1934 17.192C26.8814 17.192 25.6974 16.912 24.6414 16.352C23.6014 15.792 22.7774 14.992 22.1694 13.952C21.5774 12.912 21.2814 11.696 21.2814 10.304C21.2814 8.92798 21.5854 7.71998 22.1934 6.67998C22.8014 5.62398 23.6334 4.81598 24.6894 4.25598C25.7454 3.69598 26.9294 3.41598 28.2414 3.41598C29.5534 3.41598 30.7374 3.69598 31.7934 4.25598C32.8494 4.81598 33.6814 5.62398 34.2894 6.67998C34.8974 7.71998 35.2014 8.92798 35.2014 10.304C35.2014 11.68 34.8894 12.896 34.2654 13.952C33.6574 14.992 32.8174 15.792 31.7454 16.352C30.6894 16.912 29.5054 17.192 28.1934 17.192ZM28.1934 13.64C28.9774 13.64 29.6414 13.352 30.1854 12.776C30.7454 12.2 31.0254 11.376 31.0254 10.304C31.0254 9.23198 30.7534 8.40798 30.2094 7.83198C29.6814 7.25598 29.0254 6.96798 28.2414 6.96798C27.4414 6.96798 26.7774 7.25598 26.2494 7.83198C25.7214 8.39198 25.4574 9.21598 25.4574 10.304C25.4574 11.376 25.7134 12.2 26.2254 12.776C26.7534 13.352 27.4094 13.64 28.1934 13.64Z" fill="#0F241D"/>
<path d="M45.5387 3.46398C47.1067 3.46398 48.3547 3.97598 49.2827 4.99998C50.2267 6.00798 50.6987 7.39998 50.6987 9.17598V17H46.6187V9.72798C46.6187 8.83198 46.3867 8.13598 45.9227 7.63998C45.4587 7.14398 44.8347 6.89598 44.0507 6.89598C43.2667 6.89598 42.6427 7.14398 42.1787 7.63998C41.7147 8.13598 41.4827 8.83198 41.4827 9.72798V17H37.3787V3.60798H41.4827V5.38398C41.8987 4.79198 42.4587 4.32798 43.1627 3.99198C43.8667 3.63998 44.6587 3.46398 45.5387 3.46398Z" fill="#0F241D"/>
<path d="M58.9985 17.192C57.8305 17.192 56.7905 16.992 55.8785 16.592C54.9665 16.192 54.2465 15.648 53.7185 14.96C53.1905 14.256 52.8945 13.472 52.8305 12.608H56.8865C56.9345 13.072 57.1505 13.448 57.5345 13.736C57.9185 14.024 58.3905 14.168 58.9505 14.168C59.4625 14.168 59.8545 14.072 60.1265 13.88C60.4145 13.672 60.5585 13.408 60.5585 13.088C60.5585 12.704 60.3585 12.424 59.9585 12.248C59.5585 12.056 58.9105 11.848 58.0145 11.624C57.0545 11.4 56.2545 11.168 55.6145 10.928C54.9745 10.672 54.4225 10.28 53.9585 9.75198C53.4945 9.20798 53.2625 8.47998 53.2625 7.56798C53.2625 6.79998 53.4705 6.10398 53.8865 5.47998C54.3185 4.83998 54.9425 4.33598 55.7585 3.96798C56.5905 3.59998 57.5745 3.41598 58.7105 3.41598C60.3905 3.41598 61.7105 3.83198 62.6705 4.66398C63.6465 5.49598 64.2065 6.59998 64.3505 7.97598H60.5585C60.4945 7.51198 60.2865 7.14398 59.9345 6.87198C59.5985 6.59998 59.1505 6.46398 58.5905 6.46398C58.1105 6.46398 57.7425 6.55998 57.4865 6.75198C57.2305 6.92798 57.1025 7.17598 57.1025 7.49598C57.1025 7.87998 57.3025 8.16798 57.7025 8.35998C58.1185 8.55198 58.7585 8.74398 59.6225 8.93598C60.6145 9.19198 61.4225 9.44798 62.0465 9.70398C62.6705 9.94398 63.2145 10.344 63.6785 10.904C64.1585 11.448 64.4065 12.184 64.4225 13.112C64.4225 13.896 64.1985 14.6 63.7505 15.224C63.3185 15.832 62.6865 16.312 61.8545 16.664C61.0385 17.016 60.0865 17.192 58.9985 17.192Z" fill="#0F241D"/>
</svg>
